<?xml version="1.0" encoding="utf-8"?>
<!-- Generator: Adobe Illustrator 21.0.0, SVG Export Plug-In . SVG Version: 6.00 Build 0)  -->
<svg version="1.1" id="Layer_1" xmlns="http://www.w3.org/2000/svg" xmlns:xlink="http://www.w3.org/1999/xlink" x="0px" y="0px"
	 viewBox="0 0 621.5 481.9" style="enable-background:new 0 0 621.5 481.9;" xml:space="preserve">
<style type="text/css">
	.st0{fill:#FFFFFF;}
</style>
<g>
	
		<image style="overflow:visible;opacity:0.1;" width="2716" height="2135" xlink:href="77F0A445.png"  transform="matrix(0.24 0 0 0.24 -8.0586 -8.2322)">
	</image>
	<g>
		<g>
			<path class="st0" d="M617.9,157.8c-1.6-9.6-1.3-19.6-4.7-28.8c-0.9-1.8,1.5-5.7-2.3-4.7l-0.8-1.3c-0.6-1-1.1-1.9-1.7-2.9
				l-0.7-1.1c-2.5-3.8-4.6-7.7-6.6-11.8c1-0.5,2.1-1,3.1-1.5c-1.4-3.5-3.9-6.3-6.5-8.9c-3-2.8-4.7-6.5-7.7-9.3
				c-3.8-3.6-6.3-8.3-10.2-11.8c-4.6-5.8-10.2-10.6-15.5-15.7c-4.9-3.4-8.8-8.1-14-11c-6.5-5.7-14.1-9.9-21-15
				c-2.3-1.7-5-2.8-7.4-4.4c-7.5-5.4-15.9-9.4-23.7-14.4c-11.1-5-22.4-10.4-34.6-12c-16.3-3.7-33.2-3.4-49.8-3
				c-12.9,0.6-25.8,1.4-38.5,3.2c-11.9,0.9-23.3,4.9-34.5,8.8c-8.8,2.5-17.5,5.6-25.8,9.3c-7.5,2.5-14.2,6.6-21.4,9.7
				c-2.5,1.1-5.1,1.5-7.7,0.5c-2.9,1.1-5.4,3.3-7.8,5.2c-3.2,2.9-7.2,4.6-10.4,7.5c-1.7,1-3.1,2.9-5.2,3c-0.5-1.2-1-2.4-1.4-3.7
				c-2.8,2.7-5.8,5.1-8.9,7.3c-5.5,4.9-11.2,9.9-17.7,13.4c-0.2-0.9-0.6-2.7-0.8-3.7c-1.6,1.9-3.2,3.9-5,5.6
				c-5.5,4.7-10,10.3-15.4,15c-0.5-0.6-0.9-1.2-1.4-1.8c-4,3-7.7,6.4-11.8,9.4c-3.8,2.8-6.9,6.4-10.9,8.9c-3.9,3.1-7.3,6.9-11.5,9.6
				c-4.2,4.5-9.4,7.9-13.4,12.6c-6.2,5.4-12.4,11-19.1,15.9c-5.1,3.7-9.8,8.6-16.2,9.9c-11.8,2-23.9,3.6-35.1,7.9
				c-7.8,4.6-15.2,9.9-21.6,16.3c-6.3,5-10.9,11.9-14,19.3c-1.8,3.9-1.3,8.3-1.9,12.4c-1.2,11.5-4.7,22.6-6.4,34
				c-9.3,1.4-18.1,4.7-26.6,8.7C15,247.4,8,253,0,256.6c9-3.2,16.8-9.3,26.2-11.7c7.5-3.2,15.3-5.3,23.3-6.6
				c-0.3,2.7-0.6,5.4-0.8,8.1c-8.4,1.4-15.8,5.5-23.3,9.2c-5.1,2.6-9.3,6.6-14.3,9.5c-3.6,2.9-7.1,6-10.9,8.8
				c4.2-2.2,7.6-5.5,11.4-8.2c6-3.3,11.5-7.6,17.7-10.5c6.3-2.3,12.5-5.4,19.2-6.3c0.1,2,0.2,4.1,0.3,6.1c-4.9,2.3-10.3,4-14.5,7.7
				c-5.6,3-9.6,8-14.5,11.8C15,280.1,9.1,284.7,5,290.9c2.7-2.5,4.8-5.7,7.6-8.1c4.1-3.3,7.2-7.9,11.7-10.7
				c7.3-6.6,15.7-12.3,25.4-14.5c-3.9,4.7-9,8.3-12.8,13.1c-2.3,2.7-5.2,4.8-7.4,7.7c-3,3.9-6.8,7.1-9.9,11c-3.5,4.5-8,8.1-10.9,13
				c12.9-14.4,26.5-28.2,40.9-41.1c0.5,1,0.9,2,1.3,3c-6.2,6.7-12.3,13.9-16,22.4c-0.2,0.5-0.6,1.3-0.8,1.8c0.5-0.5,1-1.1,1.4-1.6
				c3.6-8,10-14.3,16.4-20.1c-1.4,3.8-3.5,7.3-5.1,11.1c-2.8,7.9-7.2,15-10,22.9c-3.2,8.4-7.8,16.4-10.1,25.2
				c-1.7,4.4-3.3,8.8-5,13.3c-0.5,1.3-0.9,2.7-1.3,4.1c-0.5,1.6-1.1,3.2-1.7,4.8c-0.3,1.3-0.5,2.6-0.8,4c-0.9,3.1-1.6,6.3-2.6,9.3
				l-0.3,0.2c-0.8,3.1-1.6,6.2-2.2,9.4c-2.8,13.5-4.3,28.2,0.9,41.3c2.3-0.5,4.7-1.1,6.2-2.9c5.3-5.8,7-13.9,8.4-21.5
				c4.2-16.2,8.6-32.4,15.3-47.8c2-3.4,2.5-7.4,4.5-10.8c2-4.1,3.3-8.6,6.1-12.3l-0.1-0.9c2-4.2,4.1-8.4,5.9-12.7
				c1.9-3.2,3.7-6.5,5.7-9.7c5.3-6.4,11-12.3,17.9-17c-1.8,9.9-7.2,18.5-11.8,27.2c2.6-3.5,4.7-7.4,7.1-11
				c3.8-5.6,5.4-12.2,7.4-18.5c2-1,4.1-2,6.1-3.1c0.7,11.3-0.7,22.6-3.2,33.6c3.7-11.2,4.9-23.1,4.9-34.9c1.8-0.9,3.5-1.8,5.3-2.7
				c4.7,11.6,6.4,24.3,7,36.7c0.7-7.2-0.1-14.5-1.1-21.7c-0.3-3-1.7-6.1-0.9-9.2c-0.4-0.2-1.2-0.7-1.6-0.9c-0.3-2.8-2.2-6.4,1.2-7.9
				c7.3,7.5,8.3,18.2,11.4,27.7c-0.8-6.8-2.8-13.4-4.4-20.1c-0.8-3.2-2.8-6-4.3-8.9c0.8,0.4,2.5,1.1,3.4,1.5
				c6.6,5.3,12.7,11.3,17.8,18c-4.8-7.5-10.4-14.9-17.9-20c0.9-0.8,1.8-1.5,2.8-2.3c9.8,6.5,19.8,13.1,28.3,21.4
				c-3.4-5.4-9.2-8.5-13.5-13.1c-4-3.1-7.8-6.7-12.4-8.9c1.2-0.6,2.5-1.3,3.5-2.3c7.2-1.5,14.3,1.7,21.4,2.6
				c2.7,0.8,5.4,1.3,8.2,1.9c6.8,1.6,13.9,2.5,20.9,1.9c5.3-0.4,10.9-1.3,16,0.8c4.2,2,8,4.7,11.9,7.4c6.1,3.1,11.8,7.2,18.2,9.8
				c9.7,3.1,19,7.3,28.8,10.1c4.5,0.8,8.7,2.6,13.1,3.7l-0.5,0.7l0.8-0.7c3.9,1.6,8,2.5,12.1,3.7c15.4,4.5,31.6,4.8,47.6,4.5
				c1.9,0.3,5.1-0.6,5.6,2.1c3.6,9.9,3.1,21,7.8,30.6c2.8,4.8,5,9.9,8.1,14.5c-1.6,3-3.8,5.7-6.3,8c-9,8.7-18.2,17.2-28.3,24.5
				c-6.1,3.4-11.8,7.4-17.9,10.9c-4.6,2.4-6.9,7.3-10.8,10.6c-3.4,3.2-7.3,6.2-11.9,7.1c-12.9,2.3-26.1,3.8-39.2,2.7
				c-8-0.7-16.1,0.3-23.9,2.2c-2.8,0.8-6,0.9-8,3.2c-2.5,2.2-4,5.1-6.2,7.5c-4.7,1.1-9.5,1.8-13.8,4.2c-3.2,2.1-5.7,6.2-3.6,10
				c1.6-1.7,2.7-4.4,5.4-4.6c5.1-0.9,9.8,1.7,14.6,2.8c10.4,1.9,21.4,1.6,31.5-1.9c-4.9,2.7-10.8,3.7-14.9,7.7
				c-2,2.6-1.9,6.1-1.8,9.3c2.8-2.1,6.5-6.1,10.2-3.5c3.9,2.9,8.9,3.2,13.6,3.5c4.8,0.1,8.6-3.4,13.1-4.6c10-2.6,19.3-7.5,29.2-10.5
				c3.8-1.7,7.3-4.1,11.2-5.6c5.5-1.9,11.7-0.5,16.9-3.2c4.2-3.8,1.5-10.2,4.6-14.5c2.4-2.8,6.3-1.8,8.6,0.7
				c2.4,2.6,5.5,5.7,4.3,9.5c3.4-6.1,2.8-13.3,1.2-19.8c3.8-4,7.4-8.1,11.4-11.9c5.4-3.1,9.5-8,14.8-11.2
				c10.6-8.9,22-16.8,32.4-25.9c1.2-7.9,1.9-15.9,3-23.8c1.3-3,3.5-5.5,4.1-8.8c1.6-7.5,0.6-15.3-0.2-22.9c11.5-0.6,23-1.1,34.4-1
				c12.1,0,24.3-0.3,36.1,2.6c6.3,1.6,11.8,5.1,17.5,8.1c4,2.6,7.6,5.9,11.7,8.5c2.7,1.8,3.3,5.1,3.9,8.1c1.1,5.5,7.2,8.4,7.3,14.2
				c1.5,11.9-0.2,23.9-0.4,35.8c-0.2,10.1-2.5,20.2-7.6,29c-2.9,6.8-8.5,12.2-15.1,15.5c-5,2.9-10,5.9-15.6,7.7
				c-12.4,3.7-25.1,6.4-37.9,7.8c-5.2,0.4-11.2,1-14.9,5.2c-2.4,2.5-2.1,6.3-2.3,9.5c1.3-1.3,2.4-2.8,4-3.7c2.1-0.5,4.3-0.1,6.5,0
				c-3.2,5.1-8.2,8.8-13.8,10.7c-4.4,1.5-5.1,6.6-4.2,10.6c3-2.3,5.8-4.8,9.1-6.7c3.9-1.4,6.7,3.4,10.5,2.9c8.7-0.2,16.3-5,24.9-5.9
				c-7.1,3.9-14.1,11.6-11.5,20.3c1.4-2.9,3.5-5.6,6.7-6.5c5.9-0.9,12.1-0.8,17.7-2.9c0.7-0.1,2.1-0.3,2.8-0.4l0.2-0.3
				c3.1-1.1,6.1-2.3,9.3-3.2c8.5-2.7,16.5-7,24.9-10c4.3-1.7,8.4-4,12.4-6.3c5-3,9-7.4,12.9-11.7c2.4-2.8,6.6-2.7,8.9-5.5
				c1.4-1.6,3.1-3.1,3.8-5.1c2-8.9,1.5-18.4-2.1-26.7c0-1.3-0.1-2.5-0.1-3.8l1.7-0.7c0-2.5,2.7-3.6,4.2-5.2
				c-4.1-3.1-8.7-7.1-8.8-12.6c-0.4-11.6-0.2-23.3-0.3-35c-0.1-5,0.4-10.1,1.5-15c2-5.7,5.8-10.4,8.4-15.8c1.7-4.9,3.5-9.7,5-14.6
				c0.9-3.1,0.6-6.6,2.6-9.3c1.5,0.2,3,0.3,4.5,0.3c0.1-1.2,0.3-2.4,0.4-3.6c0.2-2.4,0.7-4.9,2.1-6.9c1.9,2.8,2.3,6.3,4.1,9.2
				c1.4-3.3,2.1-6.7,2.6-10.2c1,1.8,2.1,3.6,3.4,5.3c1.9-3.1,1.8-7.2,4.6-9.8c3.9-1.1,8.1-2,11.5-4.4c0.2-3-0.6-6-0.9-9
				c2.3,1,4.6,2.1,7.1,2.6c0.6-2.9,0.2-6.1,1.8-8.6c0.4-1.3,2.4-1.2,2.9-0.1c1.1,1.6,1.9,3.2,3,4.8c1.1-3,1.5-6.1,2.2-9.2
				c1.9-0.2,3.8-0.3,5.7-0.4c0.6-3.4,0.1-7.6,3.1-10c5-4.5,7.8-10.8,13.3-14.7c0.8-3.4,0.5-7.1,1.9-10.3c1.3,1.7,2.1,3.7,2.5,5.9
				c1.6-6.4,1.9-13.3,5.3-19.1c1-2.4,1.1-5,1.4-7.5c0.5,0.4,1.5,1.1,1.9,1.5c0.1-6.3,0.9-12.5,0.8-18.8
				C620.7,171.1,619.3,164.4,617.9,157.8z"/>
			<path class="st0" d="M528.1,393.7c-1.5,1.5-3.1,3.1-4.6,4.7c6.4,0.1,10.7,5.2,14.2,9.8C538.2,401.8,532.6,397.3,528.1,393.7z"/>
		</g>
	</g>
</g>
</svg>
